<?xml version="1.0" standalone="no"?>
<!DOCTYPE svg PUBLIC "-//W3C//DTD SVG 20010904//EN"
 "http://www.w3.org/TR/2001/REC-SVG-20010904/DTD/svg10.dtd">
<svg version="1.0" xmlns="http://www.w3.org/2000/svg"
 width="25px" height="25px" viewBox="0 0 512.000000 512.000000"
 preserveAspectRatio="xMidYMid meet">

<g transform="translate(0.000000,512.000000) scale(0.100000,-0.100000)"
fill="#000000" stroke="none">
<path d="M2321 5110 c-868 -84 -1644 -610 -2037 -1382 -139 -273 -221 -536
-266 -853 -20 -140 -17 -504 6 -660 39 -278 121 -541 247 -794 249 -502 647
-900 1150 -1150 815 -406 1779 -350 2539 147 297 194 579 482 771 788 74 116
184 342 234 478 51 138 110 376 131 531 23 157 26 521 6 660 -59 415 -191 769
-410 1099 -92 140 -185 254 -315 385 -399 403 -895 653 -1462 737 -122 18
-466 26 -594 14z m433 -1745 c22 -11 49 -33 60 -48 20 -27 21 -41 21 -360 1
-351 7 -403 46 -431 27 -19 45 -12 97 38 118 112 272 354 364 573 28 68 62
135 76 148 33 33 82 37 397 33 235 -3 274 -5 302 -21 45 -24 51 -56 25 -136
-31 -96 -89 -188 -281 -449 -221 -300 -240 -337 -210 -395 6 -12 87 -98 179
-192 160 -163 269 -295 311 -376 37 -73 17 -139 -52 -175 -40 -20 -212 -27
-430 -17 -242 12 -255 18 -455 228 -157 166 -194 195 -242 195 -61 0 -79 -38
-112 -230 -18 -106 -23 -117 -54 -146 -29 -28 -42 -32 -115 -39 -264 -23 -550
55 -766 210 -221 158 -457 463 -690 894 -104 192 -265 539 -265 572 0 14 9 38
21 53 l20 26 250 0 c148 0 268 -4 293 -11 63 -16 98 -58 151 -184 116 -273
330 -591 411 -611 53 -13 75 25 96 165 12 85 4 395 -12 452 -13 46 -56 86
-116 107 -30 11 -50 25 -52 35 -8 39 49 89 123 108 17 4 152 7 300 6 248 -2
273 -4 309 -22z"/>
</g>
</svg>
